<svg version="1.2" xmlns="http://www.w3.org/2000/svg" viewBox="0 0 1392 246" width="1392" height="246">
	<g id="Layer">
		<g id="Layer">
			<path id="Layer" fill="#002a4d" d="m57.2 179.6q-18.1 0-33.2-7.8-15.1-7.9-22.4-20.3-2.4-4-1.2-6.7 1.3-2.6 6.4-4.7l2.1-0.9q2-0.7 3.4-0.9 1.5-0.1 3 0.7 1.6 0.7 3 2 1.4 1.3 3.8 3.8 14.1 15.3 34.9 15.3 14 0 21.7-5.6 7.8-5.6 7.8-15.6 0-5.2-2.7-9.1-2.8-3.8-7.6-6.1-4.7-2.4-10.8-4.1-6.1-1.7-12.9-3.2-6.7-1.6-13.5-3.4-6.7-1.9-12.8-4.9-6.1-3-10.9-7.2-4.7-4.2-7.5-10.8-2.8-6.7-2.8-15.3 0-17.4 13.4-28.5 13.3-11.1 34.3-11.1 15.6 0 29.6 6.9 14.1 6.9 20.4 17.6 4.8 8.5-4.6 11.3l-3.3 0.9q-3.5 1.1-5.8 0-2.4-1.2-7-5.4-6.3-5.8-12.9-8.6-6.6-2.7-15.3-2.7-12.6 0-19.8 5.2-7.3 5.3-7.3 14.4 0 5.5 2.8 9.4 2.8 4 7.5 6.4 4.8 2.4 10.9 4 6.2 1.7 13 3.1 6.8 1.5 13.6 3.2 6.7 1.8 12.9 4.7 6.1 2.9 10.9 7 4.8 4.1 7.6 10.8 2.7 6.7 2.7 15.5 0 18.2-14.1 29.5-14.2 11.2-37.3 11.2z"/>
			<path id="Layer" fill="#002a4d" d="m136.8 177.7q-4.8 0-7.3-2.5-2.5-2.5-2.5-7.2v-127.6q0-4.6 2.5-7.1 2.5-2.5 7.3-2.5h2.2q4.8 0 7.3 2.5 2.5 2.5 2.5 7.1v46.6q3.7-9.3 13-15.7 9.4-6.5 23.2-6.5 22.3 0 33.5 12.8 11.2 12.8 11.2 40v50.4q0 4.7-2.5 7.2-2.5 2.5-7.2 2.5h-2.3q-4.7 0-7.2-2.5-2.5-2.5-2.6-7.2v-48.6q0-18.6-7.1-27.2-7.2-8.5-22.6-8.5-15.1 0-22.3 9.5-7.1 9.6-7.2 28.6v46.2q0 4.7-2.5 7.2-2.5 2.5-7.2 2.5z"/>
			<path id="Layer" fill="#002a4d" d="m343.5 66.8q4.8 0 7.2 2.5 2.5 2.5 2.5 7.2v91.5q0 4.8-2.5 7.2-2.4 2.5-7.2 2.5h-2.3q-4.7 0-7.2-2.5-2.5-2.5-2.5-7.2v-11.1q-4 10.2-13.4 16.4-9.4 6.3-22.8 6.3-22.8 0-33.7-13.1-11-13.1-11-39.7v-50.3q0-4.6 2.5-7.2 2.5-2.5 7.1-2.5h2.4q4.7 0 7.2 2.5 2.4 2.5 2.4 7.2v48.6q0 18.3 7.3 27 7.2 8.7 22.5 8.7 15.3 0 22.4-9.7 7.1-9.7 7.1-28.5v-46.1q0-4.6 2.5-7.2 2.5-2.5 7.2-2.5z"/>
			<path id="Layer" fill="#002a4d" d="m437.6 64.8q22.8 0 33.8 13.1 10.9 13.2 10.9 39.7v50.4q0 4.7-2.5 7.2-2.5 2.5-7.2 2.5h-2.3q-4.7 0-7.2-2.5-2.5-2.5-2.5-7.2v-48.6q0-18.3-7.3-27-7.2-8.7-22.5-8.7-15.3 0-22.4 9.6-7 9.7-7 28.5v46.2q0 4.7-2.5 7.2-2.5 2.5-7.2 2.5h-2.3q-4.7 0-7.2-2.5-2.5-2.5-2.5-7.2v-91.5q-0.1-4.7 2.5-7.2 2.5-2.5 7.2-2.5h2.3q4.7 0 7.2 2.5 2.5 2.5 2.5 7.2v11q4-10.2 13.4-16.4 9.4-6.3 22.8-6.3z"/>
			<path id="Layer" fill="#002a4d" d="m532.4 213.6q-5.3-0.1-7.2-3.2-1.9-3.2 0.2-8.3l11.3-25.2-43-98.9q-2.2-5-0.2-8.1 2.1-3.1 7.4-3.1h3.7q7.9 0 11.1 7.5l32.5 79.1 32.7-79.1q3.2-7.5 11.1-7.5h3.3q5.6 0 7.7 3.1 2.1 3.1-0.1 8.1l-55.4 128.2q-3.1 7.4-11.5 7.3z"/>
			<path id="Layer" fill-rule="evenodd" fill="#002a4d" d="m662.5 180.2q-10.5 0-19.6-3.7-9.1-3.7-16.2-10.8-7-7.1-11.1-18.3-4-11.2-4-25.2 0-13.9 4-25 4-11.2 11-18.2 7.1-7 16.2-10.7 9-3.7 19.5-3.7 13.4 0 24 6.3 10.6 6.3 15.4 17.6v-12q0-4.7 2.5-7.2 2.5-2.5 7.1-2.5h2.4q4.7 0 7.2 2.5 2.4 2.5 2.4 7.2v91.3q0 4.7-2.4 7.2-2.5 2.5-7.2 2.5h-2.4q-4.6 0-7.1-2.5-2.5-2.5-2.5-7.2v-11.3q-4.7 11.1-15.4 17.4-10.6 6.3-23.8 6.3zm5.4-18.6q15.4 0 24.9-10.7 9.4-10.6 9.4-28.7 0-18-9.5-28.5-9.6-10.6-25.2-10.6-15.4 0-24.8 10.5-9.4 10.5-9.4 28.6 0 18.3 9.5 28.8 9.4 10.6 25.1 10.6z"/>
			<path id="Layer" fill="#002a4d" d="m794.1 177.9q-8.2 0-11.4-7.4l-40.3-92.5q-2.2-5-0.2-8.1 1.9-3.1 7.2-3.1h3.7q8 0 11.2 7.5l32.6 79.7 32.5-79.7q3.2-7.5 11.2-7.5h3.5q5.5 0 7.5 3.1 2 3.1-0.2 8.1l-40.5 92.5q-3.2 7.4-11.1 7.4z"/>
			<path id="Layer" fill="#002a4d" d="m960.8 165.6q4.5 4.7 3 8.4-1.5 3.7-7.8 3.7h-5.3q-7.1 0-12-5.2l-46.2-49.4v44.9q0 4.7-2.5 7.2-2.5 2.5-7.3 2.5h-2.2q-4.8 0-7.3-2.5-2.5-2.5-2.5-7.2v-127.6q0-4.6 2.5-7.1 2.5-2.5 7.3-2.6h2.2q4.8 0.1 7.3 2.6 2.5 2.5 2.5 7.1v77.3l44.1-45.9q4.9-5 11.8-5h4.9q6.5 0 8 3.8 1.5 3.8-3.2 8.2l-42.2 41.3z"/>
			<path id="Layer" fill-rule="evenodd" fill="#002a4d" d="m1084.3 76.5v91.3q0 4.8-2.5 7.2-2.4 2.5-7.1 2.5h-2.4q-4.6 0-7.2-2.5-2.5-2.4-2.5-7.2v-11.2q-4.6 11-15.3 17.3-10.6 6.3-23.8 6.3-5 0-9.6-0.8c3.3-5.8 6-12.4 8-17.6q0.1-0.4 0.3-0.7c2-5.6 3.1-9.6 3.1-9.6-1.4 3.2-3.1 6.3-4.9 9.2q-0.2 0.3-0.4 0.6c-5.1 8.3-10.7 14.8-12.3 16.6q-1.9-0.6-3.8-1.4-9.1-3.7-16.2-10.8-7-7-11.1-18.3-4-11.2-4-25.2 0-13.9 4-25 4-11.2 11-18.2 7.1-7 16.1-10.7 9.1-3.6 19.6-3.6 13.4 0 24 6.2 10.6 6.3 15.3 17.6v-12q0-4.7 2.5-7.2 2.6-2.5 7.2-2.5h2.4q4.7 0 7.1 2.5 2.5 2.5 2.5 7.2zm-33.6 75.4c-2.6-7.2-6.5-14.2-11.8-20.4q1.4-4.3 1.9-8.8c1.1-8.5-0.1-17.3-3.5-25.4q-0.6 0.4-1.1 0.9c-6 5.8-10.2 12.7-12.7 20.1q-1.4 4.1-2 8.3c-7.9 2.8-15.3 7.2-21.9 13.2 7.2-1.3 14.5-1.4 21.7-0.3 4.2 0.6 8.4 1.7 12.5 3.2 6 2.2 11.7 5.2 16.9 9.2z"/>
			<path id="Layer" fill="#002a4d" d="m1156 179.6q-14.2 0-27.5-5.3-13.3-5.2-20.1-13.9-2.9-3.7-1.6-7.3 1.2-3.5 6.1-4.9l1.9-0.5q3-1.2 5.9-0.4 2.9 0.7 6.9 4.2 10.6 9.5 28.3 9.5 12.1 0 18.9-4.1 6.8-4.1 6.8-11.4 0-4.1-2.5-7-2.4-2.9-6.6-4.5-4.1-1.7-9.5-2.9-5.4-1.1-11.4-2.2-5.9-1-11.8-2.3-6-1.3-11.3-3.6-5.4-2.2-9.6-5.4-4.2-3.2-6.6-8.4-2.5-5.3-2.5-12.2 0-9.8 6.2-17.3 6.2-7.5 16.2-11.2 10-3.7 22.1-3.7 11.2 0 23 4.3 11.8 4.4 18.8 11.6 3.4 3.7 2.5 7.1-1 3.6-5.7 5l-2 0.5q-1.9 0.6-3.3 0.7-1.5 0.1-3.3-0.7-1.9-0.7-2.7-1.2-0.9-0.5-3.6-2.2-12-7.2-23.5-7.2-10.8 0-17.1 3.5-6.3 3.4-6.3 9.8 0 4 2.5 6.7 2.4 2.8 6.6 4.3 4.2 1.6 9.7 2.7 5.4 1.2 11.4 2.2 6 1 12 2.3 6 1.3 11.5 3.7 5.4 2.3 9.6 5.6 4.2 3.4 6.7 8.8 2.4 5.4 2.4 12.6 0 15.5-13.3 25.1-13.3 9.6-34.2 9.6z"/>
			<path id="Layer" fill="#002a4d" d="m1231.8 177.7q-4.7 0-7.2-2.5-2.5-2.5-2.5-7.2v-127.6q-0.1-4.6 2.5-7.1 2.5-2.5 7.2-2.5h2.3q4.7 0 7.2 2.5 2.5 2.5 2.5 7.1v46.6q3.7-9.3 13-15.7 9.4-6.5 23.2-6.5 22.3 0 33.5 12.8 11.2 12.8 11.2 40v50.4q0 4.7-2.5 7.2-2.5 2.5-7.2 2.5h-2.3q-4.7 0-7.2-2.5-2.5-2.5-2.5-7.2v-48.6q0-18.6-7.2-27.2-7.2-8.5-22.6-8.5-15.1 0-22.2 9.5-7.2 9.6-7.2 28.6v46.2q0 4.7-2.5 7.2-2.5 2.5-7.3 2.5z"/>
		</g>
		<g id="Layer">
			<g id="Layer">
				<path id="Layer" fill="#00ac8d" d="m1106.2 26c-1.1 0.6-1.3 2-0.4 2.8 4.3 4 8.4 8.1 12 12.8q1.8 2.4 3.5 4.9 0.1 0 0.1 0.2c0.5 1.1-0.7 2.3-1.8 1.8q-0.2-0.1-0.4-0.3-0.5-0.5-1-1c-26.2-26.2-57.9-38-94.8-35-29 2.3-53.6 14.2-74.1 34.9-0.3 0.4-0.9 1.1-0.9 1.1 0 0-0.3 0.2-0.5 0.3-1.1 0.5-2.2-0.7-1.8-1.8q0.1-0.3 0.2-0.4c5.7-8.4 12.6-15.7 20.7-21.8 37.8-28.7 88.1-30.4 127.6-4.2 2.6 1.7 4.2 1.6 6.7 0 13.5-8.9 27.9-15.8 43.9-19 5.6-1.2 11.2-1.9 16.9-0.6 5.9 1.4 8.6 4.9 8.8 11 0.2 6.4-2 12.3-4.8 17.9-3.4 6.9-8 12.9-13.4 18.4-0.7 0.7-1.7 2.1-2.9 1.3-0.7-0.7 0.1-2.4 0.4-3.1 3-6.3 6-12.6 6.4-19.7 0.4-7.8-3-11.4-10.8-11.8-6.1-0.3-11.9 0.9-17.7 2.5-7.4 2.2-14.5 5.1-21.4 8.6z"/>
				<path id="Layer" fill="#00ac8d" d="m1012.9 235.7c-8.7-1.7-17.1-4.5-25-8.2-0.5-0.3-0.6-1-0.2-1.4 1.7-1.6 3.3-3.1 5-4.6 0.9-0.9 2-0.3 2.9 0.1 11.4 3.8 23 5.8 34.9 6.2 9.3 0.3 17.1-0.9 21.4-1.8 2.9-0.5 5.4-1.2 7.6-1.8 0.9-0.2 0.8-1.5-0.1-1.6-5.3-0.7-11.9-1.5-16.8-2.2-0.8-0.1-1.4-0.8-1.3-1.6 0.1-0.8 0.7-1.5 1.5-1.5 6.6 0 16 0.2 22.1 0.1 1.9 0 4.5 0 7.7-0.1 1.6 0 2.9 0 3.7-0.1 0.5 0 0.9-0.4 0.9-0.9 0.1-0.4-0.2-0.9-0.7-1-1.5-0.4-2.8-0.7-3.6-0.8-7.3-1.5-14.5-2.6-17.5-3.1-0.8-0.1-1.4-0.9-1.3-1.7q0 0 0 0c0-0.8 0.7-1.5 1.6-1.5l30 0.1c0 0 3.5 0.1 5.1-0.1 0.4 0 0.8-0.3 0.9-0.7 0-0.4-0.2-0.9-0.7-1q-1.9-0.5-3.7-1c-8.9-2.1-15.3-3.5-16.3-3.7-0.2 0-0.8-0.1-1.2-0.6-0.1-0.2-0.2-0.5-0.2-0.9 0.1-0.9 0.6-1.3 1.6-1.3 0.4 0 0.8 0 0.8 0 0.7 0.1 16.7 0 44.4-0.1 0.8 0 1.2 0.9 0.7 1.4-5.7 6.2-11.8 11.6-18.2 16.2-26.4 19-57.8 24.6-86 19.2z"/>
				<path id="Layer" fill="#00ac8d" d="m914.8 246c-2-0.1-4.2-0.1-6.2-0.4-8-1.2-11.7-7.2-9.9-16.2 2.1-10.5 7.5-19.3 14.3-27.5 1.2-1.3 2.5-2.6 3.7-3.9 0.7-0.8 1.4-1.7 2.6-0.8 1.3 0.8 0.3 1.7-0.1 2.4-2.6 5.4-5 10.9-6.1 16.8-0.1 0.7-0.3 1.3-0.3 2-0.7 8.7 2.7 12.7 11.4 12.9 7.9 0.2 15.3-1.8 22.6-4.3 4.8-1.7 9.4-3.6 13.9-5.9 6.7-3.5 9.7-3.7 6.4-6.2-7.4-5.5-18.9-18.7-20.6-21.5-0.3-0.5-1-1.7-0.6-2.4 0.3-0.3 0.7-0.5 1.1-0.5 0.7 0 1.2 0.6 1.8 1.2 7.3 7.6 15.5 14.2 24.6 19.7 2 1.2 3.4 0.9 5.1-0.3 5.2-3.6 10.4-7.3 15.3-11.4q1.1-0.9 1.9-1.3c1.3-0.7 2.9 0.6 2.3 1.9q-0.1 0.2-0.2 0.3c-27.2 34.1-68.9 43.1-68.9 43.1-4.6 1.3-9.3 2.1-14.1 2.3z"/>
				<g id="Layer">
					<path id="Layer" fill="#00ac8d" d="m990.6 46.7c-4.7 2-9.5-1.7-9.5-6.2 0.1-3.7 3.3-6.8 7.1-6.6 5.1 0.1 8.9 6.3 4.7 11.1-0.7 0.7-1.4 1.3-2.3 1.7z"/>
				</g>
				<g id="Layer">
					<path id="Layer" fill="#00ac8d" d="m1010.6 36.4c-3.1 0-5.6-2.4-5.6-5.5-0.1-3.1 2.4-5.6 5.5-5.6 3-0.1 5.6 2.4 5.7 5.5 0 3-2.5 5.6-5.6 5.6z"/>
				</g>
				<g id="Layer">
					<path id="Layer" fill="#00ac8d" d="m1037.4 26.7c-0.1 2-1.8 3.8-3.9 3.8-2 0-3.7-1.8-3.7-3.9 0-2 1.7-3.7 3.8-3.7 2.1 0 3.8 1.7 3.8 3.8z"/>
				</g>
			</g>
		</g>
		<g id="Layer">
			<path id="Layer" fill-rule="evenodd" fill="#002a4d" d="m1136.2 244.7q-2 0-3-1.1-1.1-1.1-1.1-3.1v-37.2q0-2 1.1-3.1 1-1.1 3-1.1h8.9q11.6 0 16.6 3.9 4.9 3.9 4.9 12.9 0 9-4.9 12.9-4.9 3.8-16.5 3.8h-3.4v7.9q0 2-1 3.1-1.1 1.1-3 1.1c0 0-1.6 0-1.6 0zm10.5-20.8q5.3 0 7.6-1.9 2.4-1.9 2.4-6.2 0-4.3-2.4-6.2-2.3-1.9-7.6-1.9h-4.8v16.2z"/>
			<path id="Layer" fill="#002a4d" d="m1189.4 244.7q-3.5 0-4.8-3.3l-14.3-37.5q-0.8-2.1 0.1-3.5 0.9-1.3 3.2-1.3h2q3.4 0 4.6 3.4l10.8 30.5 10.8-30.5q1.3-3.4 4.7-3.4h2q2.3 0 3.2 1.3 0.9 1.4 0 3.5l-14.3 37.4q-1.3 3.4-4.8 3.4c0 0-3.2 0-3.2 0z"/>
			<path id="Layer" fill="#002a4d" d="m1229.6 244.7q-2 0-3.1-1.1-1-1.1-1-3.1v-32.5h-6.8q-2 0-3.1-1.1-1-1.1-1-3.1v-0.5q0-2 1-3.1 1.1-1.1 3.1-1.1h23.2q2 0 3.1 1.1 1.1 1.1 1.1 3.1v0.5q0 2-1.1 3.1-1.1 1.1-3.1 1.1h-6.7v32.5q0 2-1 3.1-1.1 1.1-3.1 1.1z"/>
			<path id="Layer" fill="#002a4d" d="m1249.4 245.1q-2.4 0-3.8-1.2-1.5-1.3-1.5-3.6 0-2.3 1.5-3.5 1.4-1.3 3.8-1.3 2.3 0 3.8 1.3 1.6 1.3 1.6 3.5 0 2.3-1.6 3.5-1.5 1.3-3.8 1.3z"/>
			<path id="Layer" fill="#002a4d" d="m1282.9 244.7q-2 0-3-1.1-1.1-1.1-1.1-3.1v-37.2q0-2 1.1-3.1 1-1.1 3-1.1h1.5q2 0 3.1 1.1 1 1.1 1 3.1v32.5h12.5q2 0 3.1 1.1 1 1.1 1 3.1v0.5q0 2-1 3.1-1.1 1.1-3.1 1.1h-18.1z"/>
			<path id="Layer" fill="#002a4d" d="m1316.8 244.7q-2 0-3-1.1-1.1-1.1-1.1-3.1v-32.5h-6.8q-2 0-3-1.1-1.1-1.1-1.1-3.1v-0.5q0-2 1.1-3.1 1-1.1 3-1.1h23.3q2 0 3 1.1 1.1 1.1 1.1 3.1v0.5q0 2-1.1 3.1-1 1.1-3 1.1h-6.7v32.5q0 2-1.1 3.1-1.1 1.1-3.1 1.1z"/>
			<path id="Layer" fill-rule="evenodd" fill="#002a4d" d="m1343.6 244.7q-2 0-3-1.1-1.1-1.1-1.1-3.1v-37.2q0-2 1.1-3.1 1-1.1 3-1.1h8.7q6.7 0 11.5 1.4 4.8 1.5 7.8 4.4 3 2.9 4.4 7.1 1.4 4.2 1.4 9.9 0 5.6-1.4 9.8-1.4 4.2-4.4 7.1-3 2.9-7.8 4.4-4.8 1.4-11.5 1.5h-8.7zm9.1-8.9q5.6 0 8.9-1.5 3.2-1.6 4.6-4.6 1.4-3 1.4-7.9 0-4.9-1.4-7.8-1.4-3-4.7-4.6-3.3-1.6-8.9-1.6h-3.3v28h3.4z"/>
			<path id="Layer" fill="#002a4d" d="m1386.6 245.1q-2.3 0-3.8-1.2-1.5-1.3-1.5-3.6 0-2.3 1.5-3.5 1.5-1.3 3.8-1.3 2.3 0 3.9 1.3 1.5 1.3 1.5 3.5 0 2.3-1.5 3.5-1.6 1.3-3.9 1.3z"/>
		</g>
	</g>
</svg>